<svg xmlns="http://www.w3.org/2000/svg" x="0px" y="0px"
width="96" height="96"
viewBox="0 0 226 226"
style=" fill:#000000;"><g transform=""><g fill="none" fill-rule="nonzero" stroke="none" stroke-width="1" stroke-linecap="butt" stroke-linejoin="miter" stroke-miterlimit="10" stroke-dasharray="" stroke-dashoffset="0" font-family="none" font-weight="none" font-size="none" text-anchor="none" style="mix-blend-mode: normal"><path d="M0,226v-226h226v226z" fill="none" stroke="none"></path><g stroke="none"><path d="M39.75717,154.90417c7.35442,-7.35912 19.28063,-7.35912 26.63504,0c7.35442,7.35442 7.35442,19.28063 0,26.63033c-7.35442,7.35913 -36.62142,9.98638 -36.62142,9.98638c0,0 2.63196,-29.26229 9.98637,-36.61671z" fill="#ff3d00"></path><path d="M46.41475,161.56175c3.67721,-3.67721 9.64267,-3.67721 13.31988,0c3.67721,3.67721 3.67721,9.63796 0,13.31517c-3.67721,3.67721 -16.64867,3.3335 -16.64867,3.3335c0,0 -0.34371,-12.96675 3.32879,-16.64867z" fill="#ffeb3b"></path><path d="M139.63975,41.70642c-9.98637,9.98167 -96.55379,96.55379 -96.55379,96.55379l39.95021,39.9455c0,0 86.56271,-86.558 96.54908,-96.54908c5.26392,-5.26392 9.58617,-20.67429 12.51475,-34.08833l-18.37192,-18.37192c-13.42346,2.92858 -28.82912,7.25083 -34.08833,12.51004z" fill="#d1c4e9"></path><path d="M99.68483,194.85437l-9.99108,-23.29683l39.95021,-39.95492l-6.65288,39.95021zM26.442,121.61154l23.30154,9.99108l39.95021,-39.95021l-39.95021,6.65287zM173.72808,29.19167l18.37192,18.37192c2.63196,-12.05333 4.12921,-22.50583 4.12921,-22.50583c0,0 -10.44308,1.51137 -22.50113,4.13392zM83.04088,178.21042h-13.31988l-26.63504,-26.63504v-13.31517z" fill="#7e57c2"></path><g fill="#311b92"><path d="M139.63504,72.24467c-5.20068,0 -9.41667,4.21599 -9.41667,9.41667c0,5.20068 4.21599,9.41667 9.41667,9.41667c5.20068,0 9.41667,-4.21599 9.41667,-9.41667c0,-5.20068 -4.21599,-9.41667 -9.41667,-9.41667zM116.32879,95.54621c-5.20068,0 -9.41667,4.21599 -9.41667,9.41667c0,5.20068 4.21599,9.41667 9.41667,9.41667c5.20068,0 9.41667,-4.21599 9.41667,-9.41667c0,-5.20068 -4.21599,-9.41667 -9.41667,-9.41667zM93.02725,118.85246c-5.20068,0 -9.41667,4.21599 -9.41667,9.41667c0,5.20068 4.21599,9.41667 9.41667,9.41667c5.20068,0 9.41667,-4.21599 9.41667,-9.41667c0,-5.20068 -4.21599,-9.41667 -9.41667,-9.41667z"></path></g></g><g stroke="none"><g id="IOS_copy"><path d="M205.27773,138.17909c-1.60083,-7.52392 -7.61808,-13.25867 -15.18908,-14.60525c-6.35154,-1.13 -14.23329,-2.21762 -21.02271,-2.21762c-6.78942,0 -14.67117,1.08763 -21.02271,2.21762c-7.571,1.34658 -13.58825,7.08604 -15.18908,14.60525c-0.80983,3.81846 -1.45487,7.94296 -1.45487,11.42713c0,3.72429 0.73921,8.18779 1.62908,12.22283c1.53963,6.96362 6.79412,12.50533 13.70125,14.28508c3.23462,0.83337 6.41275,1.56317 8.21133,1.74208v37.66667l9.41667,9.41667h9.41667l9.41667,-9.41667v-4.70833l-4.70833,-4.70833l4.70833,-4.70833v-4.70833l-4.70833,-4.70833l4.70833,-4.70833v-9.41667c1.79858,-0.17892 4.97671,-0.90871 8.21133,-1.74208c6.90242,-1.77975 12.16163,-7.32146 13.70125,-14.28508c0.88987,-4.03504 1.62908,-8.49854 1.62908,-12.22283c0,-3.48417 -0.64504,-7.60867 -1.45487,-11.42713zM187.89927,139.71872c0,2.825 -2.35417,5.17917 -5.17917,5.17917h-27.30833c-2.825,0 -5.17917,-2.35417 -5.17917,-5.17917v-6.59167c0,-1.4125 8.475,-2.35417 18.83333,-2.35417c10.35833,0 18.83333,1.4125 18.83333,2.825z" fill="#ffa000"></path><rect x="34.90781" y="36.87477" transform="scale(4.70833,4.70833)" width="1" height="10.9" fill="#d68600"></rect></g></g><path d="M131.39927,224.93955v-103.58333h75.33333v103.58333z" id="overlay-drag" fill="#ff0000" stroke="none" opacity="0"></path></g></g></svg>